<svg xmlns="http://www.w3.org/2000/svg" width="480" height="479" viewBox="0 0 480 479" version="1.1"><path d="M 106.118 111.859 C 103.881 114.531, 102.377 117.043, 102.775 117.442 C 103.174 117.841, 102.825 118.017, 102 117.833 C 101.170 117.649, 100.623 118.091, 100.775 118.824 C 100.926 119.553, 100.659 119.907, 100.182 119.613 C 99.705 119.318, 95.457 123.057, 90.740 127.921 C 84.040 134.833, 82.421 137.042, 83.333 138.030 C 84.236 139.007, 84.198 139.122, 83.164 138.534 C 81.563 137.625, 74.758 143.800, 75.693 145.313 C 76.032 145.861, 75.863 146.033, 75.317 145.696 C 74.018 144.893, 66.726 152.369, 67.730 153.473 C 68.153 153.939, 67.990 154.029, 67.366 153.673 C 66.734 153.312, 64.373 155.123, 62.034 157.763 C 56.972 163.476, 40.036 181.101, 23.786 197.567 C 17.236 204.204, 11.749 210.504, 11.593 211.567 C 11.437 212.630, 10.902 213.507, 10.405 213.515 C 8.985 213.539, 7 215.022, 7 216.059 C 7 217.112, 33.276 217.391, 34.318 216.349 C 34.676 215.991, 34.197 215.133, 33.253 214.443 C 31.737 213.335, 31.829 213.245, 34.042 213.668 C 35.976 214.037, 37.290 213.328, 39.818 210.550 C 41.720 208.460, 42.795 206.441, 42.385 205.727 C 41.997 205.052, 42.036 204.822, 42.471 205.215 C 43.476 206.122, 73 176.232, 73 174.309 C 73 173.524, 73.358 173.103, 73.795 173.373 C 74.945 174.084, 83.140 165.488, 82.249 164.505 C 81.837 164.051, 81.994 163.960, 82.597 164.304 C 83.897 165.044, 89.036 159.963, 89.383 157.594 C 89.516 156.687, 89.865 156.070, 90.159 156.223 C 91.215 156.771, 93.964 153.750, 93.334 152.732 C 92.981 152.160, 93.160 151.981, 93.732 152.334 C 95.028 153.135, 97.256 150.617, 96.241 149.498 C 95.834 149.048, 96.008 148.969, 96.628 149.323 C 97.261 149.685, 100.688 146.842, 104.438 142.845 L 111.119 135.723 114.447 138.949 C 116.817 141.246, 117.929 141.790, 118.309 140.837 C 118.737 139.765, 118.858 139.759, 118.921 140.809 C 118.968 141.583, 119.511 141.811, 120.250 141.367 C 121.212 140.789, 121.206 140.980, 120.221 142.195 C 119.139 143.532, 119.419 144.175, 122.048 146.387 C 123.756 147.824, 124.839 149, 124.454 149 C 124.070 149, 124.332 149.695, 125.038 150.546 C 125.743 151.396, 126.947 151.851, 127.712 151.557 C 128.478 151.263, 128.843 151.445, 128.524 151.961 C 127.939 152.907, 134.120 159.705, 156.953 183.228 C 165.539 192.074, 169.887 195.875, 170.953 195.470 C 172.148 195.015, 172.230 195.153, 171.315 196.076 C 170.399 196.999, 172.311 199.512, 179.730 207.135 L 189.331 217 200.466 217 C 207.988 217, 212.037 216.595, 212.947 215.750 C 214.024 214.750, 214.152 214.750, 213.588 215.750 C 213.113 216.591, 213.630 217, 215.169 217 C 217.069 217, 216.033 215.570, 209.050 208.551 C 204.427 203.904, 200.280 200.327, 199.834 200.603 C 199.388 200.878, 199.259 200.490, 199.547 199.739 C 200.233 197.952, 196.491 194.578, 194.909 195.557 C 194.097 196.058, 193.950 195.891, 194.467 195.054 C 195.350 193.625, 183.211 180.752, 181.802 181.622 C 181.334 181.912, 181.074 181.553, 181.225 180.824 C 181.376 180.096, 180.954 179.607, 180.286 179.738 C 179.584 179.876, 179.313 179.348, 179.643 178.488 C 180.153 177.159, 179.010 176.525, 176.750 176.882 C 176.338 176.947, 176.053 176.662, 176.118 176.250 C 176.184 175.837, 176.184 168.412, 176.118 159.750 L 176 144 168 144 L 160 144 160 150 C 160 154.667, 159.667 156, 158.500 156 C 157.675 156, 157 155.545, 157 154.990 C 157 153.422, 131.252 128.092, 130.418 128.839 C 130.012 129.202, 130 128.943, 130.391 128.262 C 131.133 126.973, 126.762 121.500, 124.991 121.500 C 124.446 121.500, 123.988 121.050, 123.973 120.500 C 123.943 119.373, 111.936 107, 110.872 107 C 110.495 107, 108.356 109.186, 106.118 111.859 M 93.261 181.007 C 62.035 189.190, 40.967 216.773, 41.015 249.410 C 41.034 262.196, 42.896 270.154, 48.549 281.604 C 58.054 300.854, 76.776 315.145, 97.434 318.917 C 101.483 319.656, 141.899 320, 224.684 320 L 346 320 346 312.523 L 346 305.046 222.750 304.773 L 99.500 304.500 93.680 302.280 C 84.549 298.797, 76.568 293.442, 70.462 286.702 C 50.582 264.759, 51.214 231.518, 71.904 210.939 C 80.119 202.766, 87.457 198.547, 98.160 195.840 C 117.061 191.060, 135.933 196.411, 150.180 210.588 L 156.706 217.082 165.418 216.791 L 174.130 216.500 170.139 210.500 C 160.096 195.402, 146.015 185.224, 129.234 180.932 C 119.180 178.361, 103.232 178.394, 93.261 181.007 M 360 251.500 L 360 285 367 285 L 374 285 374 251.500 L 374 218 367 218 L 360 218 360 251.500 M 383 251.500 L 383 285 390 285 L 397 285 397 251.500 L 397 218 390 218 L 383 218 383 251.500 M 161.750 221.557 C 161.338 221.984, 161 236.433, 161 253.667 L 161 285 176.250 284.988 C 197.345 284.972, 204.571 282.808, 212.074 274.262 C 226.240 258.129, 219.999 231.517, 200.274 223.945 C 195.453 222.094, 191.860 221.650, 178.500 221.254 C 169.700 220.994, 162.162 221.130, 161.750 221.557 M 89 234.536 L 89 245.072 98.750 244.786 L 108.500 244.500 108.785 234.250 L 109.070 224 99.035 224 L 89 224 89 234.536 M 114 234.500 L 114 245 124 245 L 134 245 134 234.500 L 134 224 124 224 L 114 224 114 234.500 M 176 253.500 L 176 272 181.557 272 C 189.621 272, 195.676 270.171, 199.475 266.588 C 205.811 260.613, 206.614 248.821, 201.148 242.018 C 196.930 236.768, 192.776 235.104, 183.750 235.048 L 176 235 176 253.500 M 318.737 237.792 C 308.460 241.478, 302.664 249.628, 302.609 260.470 C 302.555 271.111, 306.838 278.749, 315.405 283.287 C 321.660 286.600, 334.734 286.429, 341.512 282.945 C 345.982 280.648, 353 273.303, 353 270.922 C 353 270.415, 350.095 270, 346.544 270 C 341.308 270, 339.393 270.472, 336.405 272.500 C 329.915 276.904, 320.714 275.215, 317.517 269.033 C 316.683 267.419, 316 265.852, 316 265.550 C 316 265.247, 324.550 265, 335 265 L 354 265 354 261.038 C 354 254.837, 350.440 246.630, 346.017 242.634 C 339.165 236.444, 328.013 234.464, 318.737 237.792 M 420 237.537 C 403.561 242.641, 397.345 264.521, 408.748 277.143 C 414.712 283.744, 419.044 285.486, 429.500 285.486 C 437.002 285.486, 439.228 285.098, 442.876 283.158 C 451.352 278.650, 455.941 271.280, 455.978 262.116 C 456.011 254.089, 454.111 249.105, 449.019 243.855 C 442.009 236.627, 430.794 234.185, 420 237.537 M 220.018 237.250 C 220.027 237.387, 223.973 248.075, 228.786 261 L 237.537 284.500 244.019 284.790 L 250.500 285.079 255.430 271.790 C 258.141 264.480, 260.660 258.141, 261.028 257.701 C 261.632 256.981, 263.141 260.597, 270.039 279.294 L 272.176 285.087 278.673 284.794 L 285.170 284.500 293.124 263 C 303.861 233.980, 303.616 237, 295.231 237 L 288.245 237 284.962 246.250 C 283.157 251.338, 280.794 257.929, 279.712 260.899 L 277.745 266.298 272.372 251.935 C 269.418 244.035, 267 237.420, 267 237.236 C 267 237.051, 264.443 237.035, 261.318 237.200 L 255.635 237.500 250.584 251.250 C 247.805 258.813, 245.269 265, 244.948 265 C 244.627 265, 242.159 258.700, 239.464 251 L 234.565 237 227.283 237 C 223.277 237, 220.008 237.113, 220.018 237.250 M 323.418 247.915 C 322.274 248.408, 320.068 250.316, 318.517 252.155 L 315.696 255.500 321.806 255.797 C 325.167 255.960, 330.972 255.960, 334.707 255.797 L 341.497 255.500 337.964 251.651 C 335.078 248.507, 333.614 247.731, 329.966 247.411 C 327.510 247.196, 324.563 247.423, 323.418 247.915 M 423.329 249.458 C 415.843 252.714, 414.206 265.087, 420.481 270.982 C 422.287 272.679, 424.449 273.439, 428.242 273.709 C 437.202 274.349, 442.231 269.869, 442.231 261.248 C 442.231 250.716, 433.276 245.131, 423.329 249.458 M 89 259.500 L 89 270 99 270 L 109 270 109 259.500 L 109 249 99 249 L 89 249 89 259.500 M 114 259.500 L 114 270 124 270 L 134 270 134 259.500 L 134 249 124 249 L 114 249 114 259.500 M 354 312 L 354 321 359.500 321 C 363.722 321, 365 320.652, 365 319.500 C 365 318.452, 363.944 318, 361.500 318 C 358.433 318, 358 317.690, 358 315.500 C 358 313.374, 358.461 313, 361.083 313 C 363.106 313, 364.023 312.570, 363.750 311.750 C 363.521 311.063, 362.808 310.444, 362.167 310.375 C 361.525 310.306, 360.325 310.194, 359.500 310.125 C 358.675 310.056, 358 309.325, 358 308.500 C 358 307.452, 359.056 307, 361.500 307 C 364.333 307, 365 306.619, 365 305 C 365 303.242, 364.333 303, 359.500 303 L 354 303 354 312 M 368.571 304.571 C 366.688 306.455, 366.512 310.369, 368.250 311.743 C 368.938 312.287, 370.850 313.167, 372.500 313.699 C 376.163 314.879, 377.203 318, 373.934 318 C 372.716 318, 371.173 317.252, 370.505 316.338 C 369.742 315.294, 368.635 314.926, 367.531 315.350 C 365.945 315.958, 365.918 316.244, 367.251 318.262 C 368.316 319.874, 369.906 320.587, 372.938 320.811 C 377.925 321.180, 380 319.766, 380 316 C 380 312.910, 378.843 311.701, 374.563 310.322 C 372.947 309.801, 371.447 308.841, 371.229 308.188 C 370.604 306.313, 374.136 305.465, 375.396 307.188 C 376.091 308.139, 377.217 308.450, 378.426 308.026 C 380.289 307.373, 380.281 307.281, 378.175 305.175 C 375.616 302.616, 370.828 302.315, 368.571 304.571 M 381.667 303.667 C 380.149 305.185, 381.147 307, 383.500 307 C 385.929 307, 386 307.200, 386 314 C 386 320.333, 386.190 321, 388 321 C 389.810 321, 390 320.333, 390 314 C 390 307.200, 390.071 307, 392.500 307 C 394.333 307, 395 306.467, 395 305 C 395 303.211, 394.333 303, 388.667 303 C 385.183 303, 382.033 303.300, 381.667 303.667 M 404.400 303.765 C 403.795 304.169, 402.793 305.463, 402.174 306.640 C 401.219 308.454, 401.350 308.858, 403.037 309.299 C 404.348 309.642, 405.380 309.159, 406.063 307.882 C 407.261 305.645, 409 306.270, 409 308.938 C 409 310.022, 407.772 311.266, 405.962 312.016 C 402.660 313.383, 401 315.698, 401 318.934 C 401 320.813, 401.597 321, 407.583 321 C 412.403 321, 414.057 320.665, 413.756 319.750 C 413.530 319.063, 411.479 318.275, 409.200 318 C 404.537 317.438, 404.658 316.223, 409.629 313.677 C 413.330 311.781, 414.271 309.842, 413.049 306.628 C 411.814 303.382, 407.241 301.868, 404.400 303.765 M 418 305 C 415.510 307.490, 415.253 315.488, 417.557 318.777 C 419.126 321.017, 424.203 321.835, 426.600 320.235 C 430.356 317.727, 431.089 309.655, 427.927 305.635 C 425.392 302.411, 420.878 302.122, 418 305 M 435.400 303.765 C 434.795 304.169, 433.793 305.463, 433.174 306.640 C 432.219 308.454, 432.350 308.858, 434.037 309.299 C 435.348 309.642, 436.380 309.159, 437.063 307.882 C 438.261 305.645, 440 306.270, 440 308.938 C 440 310.022, 438.772 311.266, 436.962 312.016 C 433.660 313.383, 432 315.698, 432 318.934 C 432 320.809, 432.598 321, 438.469 321 C 443.808 321, 444.837 320.738, 444.362 319.500 C 443.981 318.509, 442.381 317.989, 439.643 317.968 L 435.500 317.937 438.106 315.718 C 439.539 314.498, 441.508 313.036, 442.481 312.470 C 444.536 311.273, 444.835 306.711, 443.003 304.503 C 441.698 302.931, 437.290 302.503, 435.400 303.765 M 447.850 306.500 C 447.767 308.425, 447.655 310.563, 447.600 311.250 C 447.538 312.031, 448.813 312.500, 451 312.500 C 453.870 312.500, 454.558 312.906, 454.820 314.754 C 455.232 317.656, 452.200 318.994, 450.495 316.662 C 449.106 314.762, 447.420 314.512, 446.461 316.063 C 445.306 317.932, 449.110 321, 452.584 321 C 456.632 321, 459 318.768, 459 314.952 C 459 311.651, 455.329 308.553, 452.641 309.584 C 451.539 310.007, 451 309.686, 451 308.607 C 451 307.437, 451.952 307, 454.500 307 C 457.333 307, 458 306.619, 458 305 C 458 303.267, 457.333 303, 453 303 L 448 303 447.850 306.500 M 420.667 307.667 C 420.300 308.033, 420 310.235, 420 312.560 C 420 315.638, 420.468 316.966, 421.724 317.447 C 424.831 318.640, 427.126 313.097, 425.393 308.582 C 424.781 306.988, 421.903 306.431, 420.667 307.667" stroke="none" fill="#5d1be2" fill-rule="evenodd"/><path d="M 0 239.502 L 0 479.004 240.250 478.752 L 480.500 478.500 480.752 239.250 L 481.004 0 240.502 0 L 0 0 0 239.502 M 0.492 240 C 0.492 371.725, 0.608 425.613, 0.750 359.750 C 0.892 293.888, 0.892 186.113, 0.750 120.250 C 0.608 54.388, 0.492 108.275, 0.492 240 M 106.118 111.859 C 103.881 114.531, 102.377 117.043, 102.775 117.442 C 103.174 117.841, 102.825 118.017, 102 117.833 C 101.170 117.649, 100.623 118.091, 100.775 118.824 C 100.926 119.553, 100.659 119.907, 100.182 119.613 C 99.705 119.318, 95.457 123.057, 90.740 127.921 C 84.040 134.833, 82.421 137.042, 83.333 138.030 C 84.236 139.007, 84.198 139.122, 83.164 138.534 C 81.563 137.625, 74.758 143.800, 75.693 145.313 C 76.032 145.861, 75.863 146.033, 75.317 145.696 C 74.018 144.893, 66.726 152.369, 67.730 153.473 C 68.153 153.939, 67.990 154.029, 67.366 153.673 C 66.734 153.312, 64.373 155.123, 62.034 157.763 C 56.972 163.476, 40.036 181.101, 23.786 197.567 C 17.236 204.204, 11.749 210.504, 11.593 211.567 C 11.437 212.630, 10.902 213.507, 10.405 213.515 C 8.985 213.539, 7 215.022, 7 216.059 C 7 217.112, 33.276 217.391, 34.318 216.349 C 34.676 215.991, 34.197 215.133, 33.253 214.443 C 31.737 213.335, 31.829 213.245, 34.042 213.668 C 35.976 214.037, 37.290 213.328, 39.818 210.550 C 41.720 208.460, 42.795 206.441, 42.385 205.727 C 41.997 205.052, 42.036 204.822, 42.471 205.215 C 43.476 206.122, 73 176.232, 73 174.309 C 73 173.524, 73.358 173.103, 73.795 173.373 C 74.945 174.084, 83.140 165.488, 82.249 164.505 C 81.837 164.051, 81.994 163.960, 82.597 164.304 C 83.897 165.044, 89.036 159.963, 89.383 157.594 C 89.516 156.687, 89.865 156.070, 90.159 156.223 C 91.215 156.771, 93.964 153.750, 93.334 152.732 C 92.981 152.160, 93.160 151.981, 93.732 152.334 C 95.028 153.135, 97.256 150.617, 96.241 149.498 C 95.834 149.048, 96.008 148.969, 96.628 149.323 C 97.261 149.685, 100.688 146.842, 104.438 142.845 L 111.119 135.723 114.447 138.949 C 116.817 141.246, 117.929 141.790, 118.309 140.837 C 118.737 139.765, 118.858 139.759, 118.921 140.809 C 118.968 141.583, 119.511 141.811, 120.250 141.367 C 121.212 140.789, 121.206 140.980, 120.221 142.195 C 119.139 143.532, 119.419 144.175, 122.048 146.387 C 123.756 147.824, 124.839 149, 124.454 149 C 124.070 149, 124.332 149.695, 125.038 150.546 C 125.743 151.396, 126.947 151.851, 127.712 151.557 C 128.478 151.263, 128.843 151.445, 128.524 151.961 C 127.939 152.907, 134.120 159.705, 156.953 183.228 C 165.539 192.074, 169.887 195.875, 170.953 195.470 C 172.148 195.015, 172.230 195.153, 171.315 196.076 C 170.399 196.999, 172.311 199.512, 179.730 207.135 L 189.331 217 200.466 217 C 207.988 217, 212.037 216.595, 212.947 215.750 C 214.024 214.750, 214.152 214.750, 213.588 215.750 C 213.113 216.591, 213.630 217, 215.169 217 C 217.069 217, 216.033 215.570, 209.050 208.551 C 204.427 203.904, 200.280 200.327, 199.834 200.603 C 199.388 200.878, 199.259 200.490, 199.547 199.739 C 200.233 197.952, 196.491 194.578, 194.909 195.557 C 194.097 196.058, 193.950 195.891, 194.467 195.054 C 195.350 193.625, 183.211 180.752, 181.802 181.622 C 181.334 181.912, 181.074 181.553, 181.225 180.824 C 181.376 180.096, 180.954 179.607, 180.286 179.738 C 179.584 179.876, 179.313 179.348, 179.643 178.488 C 180.153 177.159, 179.010 176.525, 176.750 176.882 C 176.338 176.947, 176.053 176.662, 176.118 176.250 C 176.184 175.837, 176.184 168.412, 176.118 159.750 L 176 144 168 144 L 160 144 160 150 C 160 154.667, 159.667 156, 158.500 156 C 157.675 156, 157 155.545, 157 154.990 C 157 153.422, 131.252 128.092, 130.418 128.839 C 130.012 129.202, 130 128.943, 130.391 128.262 C 131.133 126.973, 126.762 121.500, 124.991 121.500 C 124.446 121.500, 123.988 121.050, 123.973 120.500 C 123.943 119.373, 111.936 107, 110.872 107 C 110.495 107, 108.356 109.186, 106.118 111.859 M 93.261 181.007 C 62.035 189.190, 40.967 216.773, 41.015 249.410 C 41.034 262.196, 42.896 270.154, 48.549 281.604 C 58.054 300.854, 76.776 315.145, 97.434 318.917 C 101.483 319.656, 141.899 320, 224.684 320 L 346 320 346 312.523 L 346 305.046 222.750 304.773 L 99.500 304.500 93.680 302.280 C 84.549 298.797, 76.568 293.442, 70.462 286.702 C 50.582 264.759, 51.214 231.518, 71.904 210.939 C 80.119 202.766, 87.457 198.547, 98.160 195.840 C 117.061 191.060, 135.933 196.411, 150.180 210.588 L 156.706 217.082 165.418 216.791 L 174.130 216.500 170.139 210.500 C 160.096 195.402, 146.015 185.224, 129.234 180.932 C 119.180 178.361, 103.232 178.394, 93.261 181.007 M 360 251.500 L 360 285 367 285 L 374 285 374 251.500 L 374 218 367 218 L 360 218 360 251.500 M 383 251.500 L 383 285 390 285 L 397 285 397 251.500 L 397 218 390 218 L 383 218 383 251.500 M 161.750 221.557 C 161.338 221.984, 161 236.433, 161 253.667 L 161 285 176.250 284.988 C 197.345 284.972, 204.571 282.808, 212.074 274.262 C 226.240 258.129, 219.999 231.517, 200.274 223.945 C 195.453 222.094, 191.860 221.650, 178.500 221.254 C 169.700 220.994, 162.162 221.130, 161.750 221.557 M 89 234.536 L 89 245.072 98.750 244.786 L 108.500 244.500 108.785 234.250 L 109.070 224 99.035 224 L 89 224 89 234.536 M 114 234.500 L 114 245 124 245 L 134 245 134 234.500 L 134 224 124 224 L 114 224 114 234.500 M 176 253.500 L 176 272 181.557 272 C 189.621 272, 195.676 270.171, 199.475 266.588 C 205.811 260.613, 206.614 248.821, 201.148 242.018 C 196.930 236.768, 192.776 235.104, 183.750 235.048 L 176 235 176 253.500 M 318.737 237.792 C 308.460 241.478, 302.664 249.628, 302.609 260.470 C 302.555 271.111, 306.838 278.749, 315.405 283.287 C 321.660 286.600, 334.734 286.429, 341.512 282.945 C 345.982 280.648, 353 273.303, 353 270.922 C 353 270.415, 350.095 270, 346.544 270 C 341.308 270, 339.393 270.472, 336.405 272.500 C 329.915 276.904, 320.714 275.215, 317.517 269.033 C 316.683 267.419, 316 265.852, 316 265.550 C 316 265.247, 324.550 265, 335 265 L 354 265 354 261.038 C 354 254.837, 350.440 246.630, 346.017 242.634 C 339.165 236.444, 328.013 234.464, 318.737 237.792 M 420 237.537 C 403.561 242.641, 397.345 264.521, 408.748 277.143 C 414.712 283.744, 419.044 285.486, 429.500 285.486 C 437.002 285.486, 439.228 285.098, 442.876 283.158 C 451.352 278.650, 455.941 271.280, 455.978 262.116 C 456.011 254.089, 454.111 249.105, 449.019 243.855 C 442.009 236.627, 430.794 234.185, 420 237.537 M 220.018 237.250 C 220.027 237.387, 223.973 248.075, 228.786 261 L 237.537 284.500 244.019 284.790 L 250.500 285.079 255.430 271.790 C 258.141 264.480, 260.660 258.141, 261.028 257.701 C 261.632 256.981, 263.141 260.597, 270.039 279.294 L 272.176 285.087 278.673 284.794 L 285.170 284.500 293.124 263 C 303.861 233.980, 303.616 237, 295.231 237 L 288.245 237 284.962 246.250 C 283.157 251.338, 280.794 257.929, 279.712 260.899 L 277.745 266.298 272.372 251.935 C 269.418 244.035, 267 237.420, 267 237.236 C 267 237.051, 264.443 237.035, 261.318 237.200 L 255.635 237.500 250.584 251.250 C 247.805 258.813, 245.269 265, 244.948 265 C 244.627 265, 242.159 258.700, 239.464 251 L 234.565 237 227.283 237 C 223.277 237, 220.008 237.113, 220.018 237.250 M 323.418 247.915 C 322.274 248.408, 320.068 250.316, 318.517 252.155 L 315.696 255.500 321.806 255.797 C 325.167 255.960, 330.972 255.960, 334.707 255.797 L 341.497 255.500 337.964 251.651 C 335.078 248.507, 333.614 247.731, 329.966 247.411 C 327.510 247.196, 324.563 247.423, 323.418 247.915 M 423.329 249.458 C 415.843 252.714, 414.206 265.087, 420.481 270.982 C 422.287 272.679, 424.449 273.439, 428.242 273.709 C 437.202 274.349, 442.231 269.869, 442.231 261.248 C 442.231 250.716, 433.276 245.131, 423.329 249.458 M 89 259.500 L 89 270 99 270 L 109 270 109 259.500 L 109 249 99 249 L 89 249 89 259.500 M 114 259.500 L 114 270 124 270 L 134 270 134 259.500 L 134 249 124 249 L 114 249 114 259.500 M 354 312 L 354 321 359.500 321 C 363.722 321, 365 320.652, 365 319.500 C 365 318.452, 363.944 318, 361.500 318 C 358.433 318, 358 317.690, 358 315.500 C 358 313.374, 358.461 313, 361.083 313 C 363.106 313, 364.023 312.570, 363.750 311.750 C 363.521 311.063, 362.808 310.444, 362.167 310.375 C 361.525 310.306, 360.325 310.194, 359.500 310.125 C 358.675 310.056, 358 309.325, 358 308.500 C 358 307.452, 359.056 307, 361.500 307 C 364.333 307, 365 306.619, 365 305 C 365 303.242, 364.333 303, 359.500 303 L 354 303 354 312 M 368.571 304.571 C 366.688 306.455, 366.512 310.369, 368.250 311.743 C 368.938 312.287, 370.850 313.167, 372.500 313.699 C 376.163 314.879, 377.203 318, 373.934 318 C 372.716 318, 371.173 317.252, 370.505 316.338 C 369.742 315.294, 368.635 314.926, 367.531 315.350 C 365.945 315.958, 365.918 316.244, 367.251 318.262 C 368.316 319.874, 369.906 320.587, 372.938 320.811 C 377.925 321.180, 380 319.766, 380 316 C 380 312.910, 378.843 311.701, 374.563 310.322 C 372.947 309.801, 371.447 308.841, 371.229 308.188 C 370.604 306.313, 374.136 305.465, 375.396 307.188 C 376.091 308.139, 377.217 308.450, 378.426 308.026 C 380.289 307.373, 380.281 307.281, 378.175 305.175 C 375.616 302.616, 370.828 302.315, 368.571 304.571 M 381.667 303.667 C 380.149 305.185, 381.147 307, 383.500 307 C 385.929 307, 386 307.200, 386 314 C 386 320.333, 386.190 321, 388 321 C 389.810 321, 390 320.333, 390 314 C 390 307.200, 390.071 307, 392.500 307 C 394.333 307, 395 306.467, 395 305 C 395 303.211, 394.333 303, 388.667 303 C 385.183 303, 382.033 303.300, 381.667 303.667 M 404.400 303.765 C 403.795 304.169, 402.793 305.463, 402.174 306.640 C 401.219 308.454, 401.350 308.858, 403.037 309.299 C 404.348 309.642, 405.380 309.159, 406.063 307.882 C 407.261 305.645, 409 306.270, 409 308.938 C 409 310.022, 407.772 311.266, 405.962 312.016 C 402.660 313.383, 401 315.698, 401 318.934 C 401 320.813, 401.597 321, 407.583 321 C 412.403 321, 414.057 320.665, 413.756 319.750 C 413.530 319.063, 411.479 318.275, 409.200 318 C 404.537 317.438, 404.658 316.223, 409.629 313.677 C 413.330 311.781, 414.271 309.842, 413.049 306.628 C 411.814 303.382, 407.241 301.868, 404.400 303.765 M 418 305 C 415.510 307.490, 415.253 315.488, 417.557 318.777 C 419.126 321.017, 424.203 321.835, 426.600 320.235 C 430.356 317.727, 431.089 309.655, 427.927 305.635 C 425.392 302.411, 420.878 302.122, 418 305 M 435.400 303.765 C 434.795 304.169, 433.793 305.463, 433.174 306.640 C 432.219 308.454, 432.350 308.858, 434.037 309.299 C 435.348 309.642, 436.380 309.159, 437.063 307.882 C 438.261 305.645, 440 306.270, 440 308.938 C 440 310.022, 438.772 311.266, 436.962 312.016 C 433.660 313.383, 432 315.698, 432 318.934 C 432 320.809, 432.598 321, 438.469 321 C 443.808 321, 444.837 320.738, 444.362 319.500 C 443.981 318.509, 442.381 317.989, 439.643 317.968 L 435.500 317.937 438.106 315.718 C 439.539 314.498, 441.508 313.036, 442.481 312.470 C 444.536 311.273, 444.835 306.711, 443.003 304.503 C 441.698 302.931, 437.290 302.503, 435.400 303.765 M 447.850 306.500 C 447.767 308.425, 447.655 310.563, 447.600 311.250 C 447.538 312.031, 448.813 312.500, 451 312.500 C 453.870 312.500, 454.558 312.906, 454.820 314.754 C 455.232 317.656, 452.200 318.994, 450.495 316.662 C 449.106 314.762, 447.420 314.512, 446.461 316.063 C 445.306 317.932, 449.110 321, 452.584 321 C 456.632 321, 459 318.768, 459 314.952 C 459 311.651, 455.329 308.553, 452.641 309.584 C 451.539 310.007, 451 309.686, 451 308.607 C 451 307.437, 451.952 307, 454.500 307 C 457.333 307, 458 306.619, 458 305 C 458 303.267, 457.333 303, 453 303 L 448 303 447.850 306.500 M 420.667 307.667 C 420.300 308.033, 420 310.235, 420 312.560 C 420 315.638, 420.468 316.966, 421.724 317.447 C 424.831 318.640, 427.126 313.097, 425.393 308.582 C 424.781 306.988, 421.903 306.431, 420.667 307.667" stroke="none" fill="#f4f3f4" fill-rule="evenodd"/></svg>